<svg width="32" height="32" viewBox="0 0 32 32" fill="none" xmlns="http://www.w3.org/2000/svg">
  <rect width="32" height="32" rx="8" fill="#0077B6"/>
  <path d="M16 6C10.477 6 6 10.477 6 16C6 21.523 10.477 26 16 26C21.523 26 26 21.523 26 16C26 10.477 21.523 6 16 6ZM16 8C20.418 8 24 11.582 24 16C24 20.418 20.418 24 16 24C11.582 24 8 20.418 8 16C8 11.582 11.582 8 16 8Z" fill="#FFDD00"/>
  <path d="M16 10L13 18H19L16 26" stroke="#FFFFFF" stroke-width="2" stroke-linecap="round" stroke-linejoin="round"/>
</svg>
